<svg xmlns="http://www.w3.org/2000/svg" xmlns:xlink="http://www.w3.org/1999/xlink" version="1.1" x="0px" y="0px" viewBox="0 0 100 125" enable-background="new 0 0 100 100" xml:space="preserve"><g><rect x="13.9" y="57.5" width="27.7" height="42.1"/><rect x="8.6" y="30.6" width="33" height="21"/><path d="M28.2,24.4c2.6,1.8,6.9,2.6,13.3,2.6c3.8,0,13.3,0,17.1,0l0,0c6.3,0,10.7-0.9,13.3-2.6c6.4-4.4,8.4-12.8,4.3-18.7   c-2.3-3.4-6.3-5.4-10.6-5.4c-3,0-5.9,0.9-8.4,2.6c-3,2-5.4,6.6-7.1,11c-1.7-4.3-4.1-8.9-7.1-11c-2.5-1.7-5.4-2.6-8.4-2.6   c-4.3,0-8.3,2-10.6,5.4C19.8,11.6,21.8,20,28.2,24.4z M60.3,7.6c1.6-1.1,3.4-1.7,5.2-1.7c2.5,0,4.7,1.1,6,3c2.3,3.4,1,8.2-2.8,10.9   c-0.7,0.5-3.2,1.6-10.1,1.6c-1.9,0-3.7-0.1-5.1-0.2C55.1,15.7,57.8,9.2,60.3,7.6z M28.5,8.9c1.3-1.9,3.5-3,6-3   c1.8,0,3.6,0.6,5.2,1.7c2.4,1.7,5.2,8.2,6.9,13.6c-1.4,0.1-3.2,0.2-5.1,0.2c-6.9,0-9.3-1.1-10.1-1.6C27.5,17.1,26.2,12.2,28.5,8.9z   "/></g><rect x="58.3" y="57.5" width="27.7" height="42.1"/><rect x="58.3" y="30.6" width="33" height="21"/><text x="0" y="115" fill="#000000" font-size="5px" font-weight="bold" font-family="'Helvetica Neue', Helvetica, Arial-Unicode, Arial, Sans-serif">Created by Nicolò Bertoncin</text><text x="0" y="120" fill="#000000" font-size="5px" font-weight="bold" font-family="'Helvetica Neue', Helvetica, Arial-Unicode, Arial, Sans-serif">from the Noun Project</text></svg>